<mxfile host="65bd71144e">
    <diagram id="SQz-jW7jYEupffBCN8sf" name="Страница 1">
        <mxGraphModel dx="734" dy="782" grid="1" gridSize="10" guides="1" tooltips="1" connect="1" arrows="1" fold="1" page="1" pageScale="1" pageWidth="827" pageHeight="1169" math="0" shadow="0">
            <root>
                <mxCell id="0"/>
                <mxCell id="1" parent="0"/>
                <mxCell id="4" value="error" style="swimlane;fontStyle=1;childLayout=stackLayout;horizontal=1;startSize=30;horizontalStack=0;resizeParent=1;resizeParentMax=0;resizeLast=0;collapsible=1;marginBottom=0;swimlaneLine=1;" parent="1" vertex="1">
                    <mxGeometry x="210" y="250" width="300" height="180" as="geometry"/>
                </mxCell>
                <mxCell id="5" value="- str : string" style="text;strokeColor=none;fillColor=none;align=left;verticalAlign=middle;spacingLeft=4;spacingRight=4;overflow=hidden;points=[[0,0.5],[1,0.5]];portConstraint=eastwest;rotatable=0;" parent="4" vertex="1">
                    <mxGeometry y="30" width="300" height="60" as="geometry"/>
                </mxCell>
                <mxCell id="6" value="+ error(s : string)&#10;+ what()" style="text;strokeColor=default;fillColor=none;align=left;verticalAlign=middle;spacingLeft=4;spacingRight=4;overflow=hidden;points=[[0,0.5],[1,0.5]];portConstraint=eastwest;rotatable=0;" parent="4" vertex="1">
                    <mxGeometry y="90" width="300" height="90" as="geometry"/>
                </mxCell>
                <mxCell id="26" value="Vector" style="swimlane;fontStyle=1;childLayout=stackLayout;horizontal=1;startSize=30;horizontalStack=0;resizeParent=1;resizeParentMax=0;resizeLast=0;collapsible=1;marginBottom=0;swimlaneLine=1;" parent="1" vertex="1">
                    <mxGeometry x="680" y="250" width="440" height="320" as="geometry"/>
                </mxCell>
                <mxCell id="27" value="- size : int&#10;- beg : int*" style="text;strokeColor=none;fillColor=none;align=left;verticalAlign=middle;spacingLeft=4;spacingRight=4;overflow=hidden;points=[[0,0.5],[1,0.5]];portConstraint=eastwest;rotatable=0;" parent="26" vertex="1">
                    <mxGeometry y="30" width="440" height="100" as="geometry"/>
                </mxCell>
                <mxCell id="28" value="+ Vector()&#10;+ Vector(s : int)&#10;+ Vector(s : int, mas : int*)&#10;+ Vector(v : const Vector&amp;)&#10;+ ~Vector()&#10;+ operator=(v : const Vector&amp;)&#10;+ operator[](i : int)&#10;+ operator+(a : int)&#10;+ operator-(a : int)&#10;+ operator()()&#10;+ operator&lt;&lt; &lt;&gt;(out : ostream&amp;, tmp : const Vector&lt;T&gt;&amp;) : friend ostream&amp;&#10;+ operator&gt;&gt; &lt;&gt;(in : istream&amp;, tmp : Vector&lt;T&gt;&amp;) : friend istream" style="text;strokeColor=default;fillColor=none;align=left;verticalAlign=middle;spacingLeft=4;spacingRight=4;overflow=hidden;points=[[0,0.5],[1,0.5]];portConstraint=eastwest;rotatable=0;" parent="26" vertex="1">
                    <mxGeometry y="130" width="440" height="190" as="geometry"/>
                </mxCell>
            </root>
        </mxGraphModel>
    </diagram>
</mxfile>